<svg xmlns="http://www.w3.org/2000/svg" viewBox="0 0 3133.3333333333335 1233.3333333333333" role="img" aria-labelledby="be-home-logo-title">
  <title id="be-home-logo-title">Be Home</title>
  <g transform="scale(6.666666666666667) translate(10 10)">
    <g fill="#554c37">
      <path fill-rule="evenodd" d="M0 0h450v165H0zm2 2h446v161H2zm4 4h438v153H6zm2 2h434v149H8z"/>
    </g>
    <g transform="matrix(2.267761699547873 0 0 2.267761699547873 46.280868141799466 23.69395909475006)" fill="#2c2825">
      <path d="M19.52 24.72c4.6.64 7.44 3.44 7.44 7.28 0 4.72-4.16 8-13.4 8H2.6c-.56 0-.96-.28-.96-.76v-.16c0-1.12 1.6-1.6 1.6-3.44V15.96c0-1.84-1.6-2.32-1.6-3.44v-.16c0-.48.4-.76.96-.76h11.08c7.2 0 10.48 3.2 10.48 7.2 0 3-1.84 5.2-4.64 5.92Zm-9.08-8.24v5.04c0 1.32.88 2.08 2.16 2.08h2c2.04 0 3.36-1.48 3.36-3.76 0-3.44-1.8-5.44-4.52-5.44h-1.12c-1.04 0-1.88.48-1.88 2.08Zm4.92 20.72c2.56 0 4-1.68 4-4.16 0-2.96-2.44-6.64-7.24-6.64h-1.68v7.4c0 1.92 1.16 3.4 3 3.4h1.92ZM43.676 33.68c.56-.56 1.52-.32 1.48.56-.12 2.2-2.4 6.16-8.16 6.16-5.92 0-10.12-4.08-10.12-10.12 0-5.96 4.56-9.84 9.92-9.88 4.76-.04 7.96 2.28 7.96 5.8 0 2.8-2.64 5.12-6.4 5.72-1.4.24-2.8.32-4 .28 1.04 2 2.8 3.24 5.04 3.24 2 0 3.56-.8 4.28-1.76Zm-7.72-11.16c-1.64 0-2.72 1.84-2.72 4.48 0 1.08.12 2.12.36 3.08.76.04 1.48 0 2-.08 1.76-.32 2.72-1.56 2.72-4.32-.04-1.76-1.04-3.16-2.36-3.16ZM52.788 40c-.56 0-.96-.28-.96-.76v-.16c0-1.12 1.6-1.6 1.6-3.44V15.96c0-1.84-1.6-2.32-1.6-3.44v-.16c0-.48.4-.76.96-.76h8.72c.6 0 .96.28.96.76v.16c0 1.12-1.72 1.6-1.72 3.44l-.04 8.16h10.52l.04-8.16c0-1.84-1.56-2.32-1.56-3.44v-.16c0-.48.32-.76.92-.76h8.72c.56 0 .96.28.96.76v.16c0 1.12-1.8 1.6-1.8 3.44v19.68c0 1.84 1.8 2.32 1.8 3.44v.16c0 .48-.4.76-.96.76h-8.72c-.6 0-.92-.28-.92-.76v-.16c0-1.12 1.56-1.6 1.56-3.44l-.04-8.4H60.72l-.04 8.4c0 1.84 1.76 2.32 1.76 3.44v.16c0 .48-.36.76-.96.76Zm39.276.4c-6.12 0-11.08-4.24-11.08-10.04 0-5.92 5.08-9.96 10.8-9.96 6 0 10.96 4.16 10.96 10.04 0 5.84-4.84 9.96-10.68 9.96Zm.84-1.96c1.88 0 2.56-1.92 2.56-4.92 0-3.12-1.64-11.16-4.8-11.16-1.92 0-2.6 1.76-2.6 5s1.6 11.08 4.84 11.08Zm43.796-2.8c.12 1.84 1.44 2.36 1.44 3.48v.16c0 .48-.4.76-.96.76h-8c-.56 0-.96-.28-.96-.76v-.16c0-1.12 1.56-1.64 1.44-3.48l-.4-7.08c-.2-4.04-1.04-5.52-2.76-5.52-1.64 0-2.48 1.6-2.48 3.8.08.56.12 1.08.12 1.68v7.12c0 1.84 1.44 2.36 1.44 3.48v.16c0 .48-.4.76-.96.76h-7.96c-.6 0-.96-.28-.96-.76v-.16c0-1.12 1.4-1.64 1.4-3.48v-7.6c0-3.4-1.04-5-2.72-5-1.84 0-2.68 1.64-2.68 3.8v8.8c0 1.84 1.76 2.36 1.76 3.48v.16c0 .48-.36.76-.96.76h-8.64c-.6 0-.96-.28-.96-.76v-.16c0-1.12 1.76-1.64 1.76-3.48V28.2c0-1.88-2.12-2.16-2.12-3.32v-.12c0-.48.4-.72.96-1l6-2.76c1-.48 1.52.16 1.52.96v1.44c1.16-1.6 3.04-2.56 5.32-2.56 2.76 0 5.16 1.12 6.56 3.28 1.08-2.08 3.28-3.28 5.92-3.28 3.44 0 6.88 1.92 7.36 8.4Zm17.796-1.96c.56-.56 1.52-.32 1.48.56-.12 2.2-2.4 6.16-8.16 6.16-5.92 0-10.12-4.08-10.12-10.12 0-5.96 4.56-9.84 9.92-9.88 4.76-.04 7.96 2.28 7.96 5.8 0 2.8-2.64 5.12-6.4 5.72-1.4.24-2.8.32-4 .28 1.04 2 2.8 3.24 5.04 3.24 2 0 3.56-.8 4.28-1.76Zm-7.72-11.16c-1.64 0-2.72 1.84-2.72 4.48 0 1.08.12 2.12.36 3.08.76.04 1.48 0 2-.08 1.76-.32 2.72-1.56 2.72-4.32-.04-1.76-1.04-3.16-2.36-3.16Z"/>
    </g>
  </g>
</svg>
